# Blender v2.81 (sub 16) OBJ File: 'scala.blend'
# www.blender.org
mtllib scala2.mtl
o Circle
v -5.008303 0.997600 0.000000
v -5.002399 -1.003504 -0.000000
v -4.657411 1.245681 -1.193264
v -4.729934 -0.782065 -1.074922
v -3.328201 1.558181 -2.015731
v -3.463163 -0.469565 -1.983332
v -1.925078 -0.157065 -1.729934
v -1.445538 1.954088 -1.410227
v -1.150024 0.090246 -0.766285
v -1.012111 2.339431 0.468170
v -0.990395 0.311685 0.331082
v -1.925396 2.651931 1.736696
v -1.813105 0.624185 1.655115
v -3.331082 0.936685 2.009605
v -3.896465 3.047837 1.897746
v -4.655116 1.249185 1.186895
v -5.015732 3.433181 0.328200
v -5.002399 1.496496 -0.000000
v -4.657411 3.745681 -1.193264
v -4.729933 1.717935 -1.074922
v -3.328200 4.058181 -2.015731
v -3.463164 2.030435 -1.983332
v -2.233714 2.277746 -1.849976
v -1.445537 4.454087 -1.410226
v -1.344884 2.499185 -1.186894
v -1.012111 4.839430 0.468170
v -0.990396 2.811684 0.331081
v -1.925396 5.151931 1.736697
v -1.813106 3.124185 1.655116
v -3.468169 5.464431 1.987890
v -3.331083 3.436685 2.009605
v -4.655113 3.749184 1.186896
v -4.975807 5.860337 0.708010
v -5.002399 3.996496 -0.000001
v -4.657408 6.245680 -1.193265
v -4.729933 4.217934 -1.074919
v -3.463163 4.530435 -1.983331
v -2.898010 6.641587 -2.096351
v -1.925074 4.842935 -1.729933
v -1.263303 7.026931 -1.074602
v -1.016669 5.155433 -0.463165
v -1.012109 7.339431 0.468170
v -1.150024 5.402746 0.766285
v -1.925394 7.651930 1.736697
v -1.813106 5.624184 1.655118
v -3.331083 5.936684 2.009605
v -3.896465 8.047836 1.897748
v -4.655114 6.249184 1.186896
v -5.084805 8.495525 0.016105
v -5.002399 6.496495 -0.000000
vt 0.000000 1.995201
vt 0.099433 1.995201
vt 0.088372 -2.007007
vt 0.224433 1.995201
vt 0.213372 -2.007007
vt 0.382343 1.995201
vt 0.338372 -2.007007
vt 0.536933 1.995201
vt 0.525872 -2.007007
vt 0.661933 1.995201
vt 0.650872 -2.007007
vt 0.819843 1.995201
vt 0.775872 -2.007007
vt 0.974433 1.995201
vt 0.900872 -2.007007
vt 1.099433 1.995201
vt 1.088372 -2.007007
vt 1.224433 1.995201
vt 1.213372 -2.007007
vt 1.383711 1.995201
vt 1.312500 -2.007007
vt 1.536933 1.995201
vt 1.525872 -2.007007
vt 1.661933 1.995201
vt 1.650872 -2.007007
vt 1.786933 1.995201
vt 1.775872 -2.007007
vt 1.944843 1.995201
vt 1.900872 -2.007007
vt 2.099433 1.995201
vt 2.088371 -2.007007
vt 2.257343 1.995201
vt 2.213372 -2.007007
vt 2.411933 1.995201
vt 2.338372 -2.007007
vt 2.536933 1.995201
vt 2.463371 -2.007007
vt 2.661933 1.995201
vt 2.650872 -2.007007
vt 2.821210 1.995201
vt 2.775872 -2.007007
vt 2.999902 1.995201
vt 2.900872 -2.007007
vt 0.000000 -2.007007
vt 0.437500 -2.007007
vt 1.000000 -2.007007
vt 1.400872 -2.007007
vt 2.000000 -2.007007
vt 2.562500 -2.007007
vt 3.000000 -2.007007
vn -0.9632 0.0115 -0.2684
vn -0.7671 0.0090 -0.6415
vn -0.8540 -0.0092 -0.5201
vn -0.0875 0.0320 -0.9956
vn -0.2748 -0.0163 -0.9614
vn 0.7830 0.0385 -0.6208
vn 0.4509 -0.0172 -0.8924
vn 0.9677 0.0128 0.2516
vn 0.9929 0.0279 0.1157
vn 0.4618 0.0320 0.8864
vn 0.6218 -0.0163 0.7830
vn -0.4639 0.0492 0.8845
vn -0.0952 -0.0232 0.9952
vn -0.9913 0.0385 0.1260
vn -0.7843 -0.0287 0.6197
vn -0.7813 0.0107 -0.6240
vn -0.8616 0.0059 -0.5075
vn -0.0938 0.0419 -0.9947
vn -0.2966 -0.0145 -0.9549
vn 0.7860 0.0355 -0.6171
vn 0.3291 -0.0014 -0.9443
vn 0.9955 0.0034 0.0944
vn 0.4830 0.0107 0.8755
vn -0.3002 0.0320 0.9533
vn -0.1140 -0.0163 0.9933
vn -0.9610 0.0385 0.2739
vn -0.7581 -0.0172 0.6519
vn -0.7828 0.0343 -0.6213
vn -0.8730 0.0279 -0.4868
vn 0.0901 0.0492 -0.9947
vn -0.2929 -0.0232 -0.9559
vn 0.8567 0.0504 -0.5133
vn 0.5032 -0.0373 -0.8633
vn 0.9585 0.0281 0.2837
vn 0.9597 -0.0370 -0.2786
vn 0.6018 0.0059 0.7986
vn -0.4817 0.0625 0.8741
vn -0.8870 0.0684 0.4567
vn -0.7868 -0.0112 0.6171
vn -0.9692 -0.0028 -0.2463
vn 0.9257 0.0162 -0.3779
vn -0.9997 -0.0106 0.0221
vn 0.8284 -0.0213 -0.5597
vn -0.9998 0.0162 -0.0051
vn 0.9321 -0.0106 0.3621
vn -0.9612 -0.0418 0.2725
usemtl None
s 1
f 1/1/1 3/2/2 4/3/3
f 3/2/2 5/4/4 6/5/5
f 5/4/4 8/6/6 7/7/7
f 8/6/6 10/8/8 11/9/9
f 10/8/8 12/10/10 13/11/11
f 12/10/10 15/12/12 14/13/13
f 15/12/12 17/14/14 16/15/15
f 17/14/14 19/16/16 20/17/17
f 19/16/16 21/18/18 22/19/19
f 21/18/18 24/20/20 23/21/21
f 24/20/20 26/22/8 27/23/22
f 26/22/8 28/24/23 29/25/11
f 28/24/23 30/26/24 31/27/25
f 30/26/24 33/28/26 32/29/27
f 33/28/26 35/30/28 36/31/29
f 35/30/28 38/32/30 37/33/31
f 38/32/30 40/34/32 39/35/33
f 40/34/32 42/36/34 41/37/35
f 42/36/34 44/38/10 45/39/36
f 44/38/10 47/40/37 46/41/13
f 47/40/37 49/42/38 48/43/39
f 1/1/1 4/3/3 2/44/40
f 3/2/2 6/5/5 4/3/3
f 5/4/4 7/7/7 6/5/5
f 8/6/6 9/45/41 7/7/7
f 8/6/6 11/9/9 9/45/41
f 10/8/8 13/11/11 11/9/9
f 12/10/10 14/13/13 13/11/11
f 15/12/12 16/15/15 14/13/13
f 17/14/14 18/46/42 16/15/15
f 17/14/14 20/17/17 18/46/42
f 19/16/16 22/19/19 20/17/17
f 21/18/18 23/21/21 22/19/19
f 24/20/20 25/47/43 23/21/21
f 24/20/20 27/23/22 25/47/43
f 26/22/8 29/25/11 27/23/22
f 28/24/23 31/27/25 29/25/11
f 30/26/24 32/29/27 31/27/25
f 33/28/26 34/48/44 32/29/27
f 33/28/26 36/31/29 34/48/44
f 35/30/28 37/33/31 36/31/29
f 38/32/30 39/35/33 37/33/31
f 40/34/32 41/37/35 39/35/33
f 42/36/34 43/49/45 41/37/35
f 42/36/34 45/39/36 43/49/45
f 44/38/10 46/41/13 45/39/36
f 47/40/37 48/43/39 46/41/13
f 49/42/38 50/50/46 48/43/39
