# Blender v2.81 (sub 16) OBJ File: ''
# www.blender.org
mtllib teapot_low_decimated.mtl
o teapot-low
v 7.224764 11.998796 -0.000009
v 5.156145 11.997957 5.156163
v -0.004587 12.009886 7.215180
v -5.228004 12.009336 5.147876
v -7.228738 11.998429 0.019112
v -5.156145 11.997957 -5.156163
v -0.000009 11.998796 -7.224764
v 5.156163 11.997957 -5.156145
v 7.160151 5.016132 7.160139
v 10.167197 5.103672 -0.000004
v 0.000004 5.103672 10.167197
v -7.160139 5.016132 7.160151
v -10.007838 4.519708 -0.000302
v -7.160151 5.016132 -7.160139
v -0.000004 5.103672 -10.167197
v 7.160139 5.016132 -7.160151
v 5.552940 0.768523 5.552927
v 7.060672 0.196981 0.000004
v -0.000004 0.668821 7.604772
v -5.552927 0.768523 5.552940
v -7.604772 0.668821 -0.000004
v -5.552940 0.768523 -5.552927
v 0.000004 0.668821 -7.604772
v 5.552927 0.768523 -5.552940
v -8.000000 10.125000 0.000000
v -7.750000 10.687500 1.125000
v -14.073540 9.674870 1.221814
v -13.176684 9.560831 -0.022277
v -7.500000 11.250000 0.000000
v -12.983330 10.658468 -0.611396
v -14.547991 9.102497 -0.678538
v -7.750000 10.687500 -1.125000
v -9.932868 3.358108 1.142022
v -12.748766 6.341478 -0.472300
v -13.656300 5.789100 0.000000
v -9.500000 3.000000 0.000000
v -9.750000 3.750000 -1.125000
v 8.500000 7.125000 0.000000
v 8.500000 5.062500 2.475000
v 12.383524 8.711087 0.911126
v 14.971163 12.003525 0.595297
v 13.727859 12.035871 -0.009967
v 8.500000 3.000000 0.000000
v 13.437500 7.218700 0.000000
v 16.138390 11.906265 0.000441
v 8.500000 5.062500 -2.475000
v 12.687500 8.109400 -1.706200
v 14.944029 12.004879 -0.610692
v 1.388271 15.412672 0.397574
v 0.488754 13.497492 0.926679
v -0.553902 14.908284 1.613044
v -0.926679 13.497492 0.488754
v -1.613044 14.908284 -0.553902
v 0.284517 13.475577 -1.086705
v 0.553902 14.908284 -1.613044
v 4.625702 12.041212 4.625702
v 6.524130 12.065972 0.000000
v -0.000000 12.065972 6.524130
v -4.625702 12.041212 4.625702
v -6.524130 12.065972 -0.000000
v -4.625702 12.041212 -4.625702
v 0.000000 12.065972 -6.524130
v 4.625702 12.041212 -4.625702
vt 1.500000 0.448430
vt 1.000000 0.408808
vt 1.000000 0.000000
vt 0.500000 0.448430
vt 0.500000 0.000000
vt 0.000000 0.408808
vt 0.000000 0.346952
vt 2.000000 0.408808
vt 1.500000 0.448430
vt 1.970651 0.346952
vt 1.000000 0.408808
vt 0.500000 0.448430
vt 0.372096 0.750000
vt 0.000000 0.583748
vt 0.349250 0.500000
vt 0.750000 -0.005007
vt 1.000000 0.000000
vt 1.000000 0.250000
vt 0.109365 0.250000
vt 0.000000 0.000000
vt 0.250000 0.000000
vt 0.860915 0.620771
vt 0.656528 0.000000
vt 1.000000 0.000000
vt 0.396238 0.500000
vt 0.156528 0.000000
vt 0.000000 0.500000
vt 0.060386 0.620771
vt 0.896238 0.500000
vt 0.423196 0.000000
vt 1.000000 0.000000
vt 0.396238 0.500000
vt 0.656528 1.000000
vt 0.500000 -0.000631
vt 0.750000 -0.000415
vt 0.156528 1.000000
vt 0.000000 -0.000631
vt 0.250000 -0.000415
vt 0.423196 1.000000
vt 0.500000 -0.000631
vt 0.750000 -0.000415
vt 0.000000 -0.000631
vt 0.250000 -0.000415
vt 1.000000 1.067585
vt 1.500000 1.059245
vt 1.500000 1.988172
vt 1.000000 1.995212
vt 0.500000 1.994334
vt 0.500000 1.059245
vt 0.000000 1.002145
vt 0.000000 1.997265
vt 2.000000 1.002145
vt 2.000000 1.997265
vt 1.500000 1.988172
vt 1.500000 1.059245
vt 1.000000 1.067585
vt 1.000000 1.997054
vt 0.500000 1.988172
vt 0.500000 1.059245
vt 0.000000 1.067585
vt 0.000000 1.997054
vt 2.000000 1.067585
vt 1.000000 0.583748
vt 1.000000 1.000000
vt 0.750000 1.000000
vt 0.750000 0.565442
vt 0.500000 1.000000
vt 0.250000 1.000000
vt 0.000000 1.000000
vt 0.500000 0.250000
vt 2.000000 1.997054
vt 0.500000 0.000000
vt 1.000000 0.450000
vt 0.625761 0.450000
vt 0.750000 0.000000
vt 1.000000 0.000000
vt 0.500000 0.000000
vt 0.750000 1.000582
vt 0.500000 0.970883
vt 1.000000 0.971995
vt 0.000000 0.450000
vt 0.000000 0.000000
vt 0.250000 0.000000
vt 0.250000 0.450000
vt 0.250000 0.997554
vt 0.000000 0.971995
vt 1.000000 -0.000631
vt 1.000000 1.000000
vt 1.000000 -0.000631
vt 1.000000 1.000000
vn 0.4500 -0.7667 0.4579
vn -0.0061 -0.8029 0.5961
vn 0.5422 -0.8402 -0.0000
vn -0.4269 -0.7938 0.4331
vn -0.5825 -0.8128 0.0000
vn -0.4269 -0.7938 -0.4331
vn -0.0061 -0.8029 -0.5961
vn 0.4500 -0.7667 -0.4579
vn -0.3187 0.6365 -0.7024
vn 0.6459 -0.5415 -0.5381
vn -0.7924 0.1494 -0.5914
vn -0.5001 -0.6719 0.5463
vn 0.5299 0.8313 0.1678
vn 0.3039 0.0262 -0.9524
vn -0.2906 -0.2955 -0.9101
vn 0.7920 0.5790 0.1937
vn 0.4265 0.7308 0.5330
vn 0.1863 0.8187 -0.5431
vn -0.2997 0.3650 0.8814
vn -0.6964 0.6659 0.2677
vn -0.8787 0.3403 -0.3347
vn 0.3327 0.3430 -0.8784
vn -0.0015 0.9681 0.2506
vn 0.1787 0.9716 0.1550
vn -0.2376 0.9713 -0.0117
vn -0.1742 0.9680 0.1809
vn -0.0024 0.9680 -0.2508
vn -0.1704 0.9701 -0.1731
vn 0.2387 0.9711 -0.0088
vn 0.1790 0.9685 -0.1730
vn 0.0004 -0.0478 0.9989
vn 0.7079 -0.0620 0.7036
vn 0.6524 0.3844 0.6531
vn -0.0005 0.3833 0.9236
vn -0.6673 0.3699 0.6464
vn -0.7086 -0.0555 0.7034
vn -0.9961 -0.0877 -0.0012
vn -0.9350 0.3547 -0.0027
vn -0.6656 0.3750 -0.6453
vn -0.7089 -0.0541 -0.7032
vn -0.0000 -0.0475 -0.9989
vn -0.0000 0.3844 -0.9232
vn 0.6528 0.3842 -0.6528
vn 0.7080 -0.0621 -0.7035
vn 0.9984 -0.0568 -0.0000
vn 0.9232 0.3844 -0.0000
vn 0.0805 -0.9701 -0.2291
vn -0.0694 0.3385 0.9384
vn -0.3796 0.4623 0.8014
vn -0.1082 0.9939 0.0199
vn -0.0400 0.3290 -0.9435
vn -0.8054 -0.5909 -0.0475
vn -0.5638 -0.7603 -0.3226
vn 0.7809 -0.6206 0.0715
vn -0.1945 0.4937 0.8476
vn 0.3293 -0.1437 0.9332
vn 0.6981 -0.7112 0.0826
vn -0.4556 0.8900 0.0144
vn 0.2493 -0.0802 0.9651
vn -0.8300 0.5391 0.1431
vn 0.8237 -0.5166 0.2338
vn 0.3914 -0.1873 -0.9010
vn 0.1499 0.1027 -0.9834
vn 0.1802 -0.0539 -0.9822
usemtl Default_OBJ
s 1
f 17/1/1 19/2/2 18/3/3
f 19/2/2 20/4/4 18/5/3
f 20/4/4 21/6/5 18/7/3
f 21/8/5 22/9/6 18/10/3
f 22/9/6 23/11/7 18/3/3
f 23/11/7 24/12/8 18/5/3
f 30/13/9 28/14/10 31/15/11
f 33/16/12 13/17/13 34/18/14
f 34/19/14 13/20/13 37/21/15
f 49/22/16 50/23/17 54/24/18
f 51/25/19 50/23/17 49/22/16
f 51/25/19 52/26/20 50/23/17
f 53/27/21 51/25/19 49/28/16
f 53/27/21 52/26/20 51/25/19
f 53/29/21 54/30/18 52/31/20
f 55/32/22 53/29/21 49/22/16
f 55/32/22 54/30/18 53/29/21
f 49/28/16 54/30/18 55/32/22
f 50/33/17 58/34/23 56/35/24
f 52/36/20 60/37/25 59/38/26
f 54/39/18 62/40/27 61/41/28
f 54/39/18 57/42/29 63/43/30
f 11/44/31 9/45/32 2/46/33 3/47/34
f 11/44/31 3/47/34 4/48/35 12/49/36
f 13/50/37 12/49/36 4/48/35 5/51/38
f 13/52/37 5/53/38 6/54/39 14/55/40
f 15/56/41 14/55/40 6/54/39 7/57/42
f 15/56/41 7/57/42 8/58/43 16/59/44
f 10/60/45 16/59/44 8/58/43 1/61/46
f 17/1/1 18/10/3 10/62/45 9/45/32
f 17/1/1 9/45/32 11/44/31 19/2/2
f 20/4/4 19/2/2 11/44/31 12/49/36
f 20/4/4 12/49/36 13/50/37 21/6/5
f 22/9/6 21/8/5 13/52/37 14/55/40
f 22/9/6 14/55/40 15/56/41 23/11/7
f 24/12/8 23/11/7 15/56/41 16/59/44
f 24/12/8 16/59/44 10/60/45 18/7/3
f 28/63/10 25/64/47 26/65/48 27/66/49
f 27/66/49 26/65/48 29/67/50 30/13/9
f 28/14/10 30/13/9 32/68/51 25/69/47
f 30/13/9 31/15/11 27/66/49
f 29/67/50 32/68/51 30/13/9
f 34/18/14 28/63/10 27/66/49 33/16/12
f 35/70/52 33/16/12 27/66/49 31/15/11
f 10/62/45 1/71/46 2/46/33 9/45/32
f 37/21/15 36/72/53 35/70/52 34/19/14
f 35/70/52 36/72/53 33/16/12
f 31/15/11 34/19/14 35/70/52
f 44/73/54 40/74/55 39/75/56 43/76/57
f 31/15/11 28/14/10 34/19/14
f 38/77/58 39/75/56 40/74/55
f 40/74/55 41/78/59 42/79/60
f 41/78/59 40/74/55 44/73/54 45/80/61
f 44/81/54 43/82/57 46/83/62 47/84/63
f 48/85/64 45/86/61 44/81/54 47/84/63
f 47/84/63 46/83/62 38/77/58 40/74/55
f 42/79/60 48/85/64 47/84/63 40/74/55
f 57/87/29 54/88/18 50/33/17 56/35/24
f 58/34/23 50/33/17 52/36/20 59/38/26
f 60/89/25 52/90/20 54/39/18 61/41/28
f 54/39/18 63/43/30 62/40/27
